<?xml version="1.0" encoding="UTF-8" standalone="no"?>
<!-- Created with Inkscape (http://www.inkscape.org/) -->

<svg
   xmlns:dc="http://purl.org/dc/elements/1.1/"
   xmlns:cc="http://creativecommons.org/ns#"
   xmlns:rdf="http://www.w3.org/1999/02/22-rdf-syntax-ns#"
   xmlns:svg="http://www.w3.org/2000/svg"
   xmlns="http://www.w3.org/2000/svg"
   xmlns:sodipodi="http://sodipodi.sourceforge.net/DTD/sodipodi-0.dtd"
   xmlns:inkscape="http://www.inkscape.org/namespaces/inkscape"
   width="150"
   height="40"
   viewBox="0 0 150 40.000001"
   id="svg4311"
   version="1.1"
   inkscape:version="0.91 r13725"
   sodipodi:docname="python.svg">
  <defs
     id="defs4313">
    <linearGradient
       id="linearGradient4689">
      <stop
         id="stop4691"
         offset="0"
         style="stop-color:#5a9fd4;stop-opacity:1;" />
      <stop
         id="stop4693"
         offset="1"
         style="stop-color:#306998;stop-opacity:1;" />
    </linearGradient>
    <linearGradient
       id="linearGradient4671">
      <stop
         id="stop4673"
         offset="0"
         style="stop-color:#ffd43b;stop-opacity:1;" />
      <stop
         id="stop4675"
         offset="1"
         style="stop-color:#ffe873;stop-opacity:1" />
    </linearGradient>
  </defs>
  <sodipodi:namedview
     id="base"
     pagecolor="#ffffff"
     bordercolor="#666666"
     borderopacity="1.0"
     inkscape:pageopacity="0.0"
     inkscape:pageshadow="2"
     inkscape:zoom="1"
     inkscape:cx="106.85714"
     inkscape:cy="206"
     inkscape:document-units="px"
     inkscape:current-layer="layer1"
     showgrid="false"
     inkscape:window-width="1855"
     inkscape:window-height="1056"
     inkscape:window-x="65"
     inkscape:window-y="24"
     inkscape:window-maximized="1"
     units="px" />
  <metadata
     id="metadata4316">
    <rdf:RDF>
      <cc:Work
         rdf:about="">
        <dc:format>image/svg+xml</dc:format>
        <dc:type
           rdf:resource="http://purl.org/dc/dcmitype/StillImage" />
        <dc:title></dc:title>
      </cc:Work>
    </rdf:RDF>
  </metadata>
  <g
     inkscape:label="レイヤー 1"
     inkscape:groupmode="layer"
     id="layer1"
     transform="translate(0,-1012.3622)">
    <g
       id="g4355"
       transform="matrix(1.0156367,0,0,1.0156367,1882.8333,1507.3123)"
       style="fill:#ffffff">
      <path
         d="m -1793.8385,-467.33427 c 0,-4.88112 -1.3918,-7.38703 -4.1754,-7.52425 -1.1075,-0.0523 -2.189,0.12416 -3.241,0.53255 -0.8397,0.30058 -1.4049,0.59789 -1.7022,0.89847 l 0,11.65065 c 1.7806,1.11737 3.3619,1.63685 4.7407,1.55517 2.9175,-0.19276 4.3779,-2.56145 4.3779,-7.11259 z m 3.4338,0.20257 c 0,2.47976 -0.5815,4.53807 -1.7512,6.17491 -1.3036,1.85247 -3.1103,2.80648 -5.4202,2.85876 -1.7414,0.0555 -3.535,-0.49008 -5.381,-1.63358 l 0,10.58884 -2.9862,-1.06509 0,-23.50389 c 0.4901,-0.60115 1.1207,-1.11736 1.8852,-1.55516 1.7773,-1.03569 3.9369,-1.56823 6.4787,-1.59437 l 0.043,0.0425 c 2.323,-0.0294 4.1134,0.92461 5.3712,2.85876 1.173,1.77406 1.761,4.048 1.761,6.82835 z"
         style="fill:#ffffff;fill-opacity:1"
         id="path46-8"
         inkscape:connector-curvature="0" />
      <path
         d="m -1772.1544,-460.18248 c 0,3.32596 -0.3332,5.62931 -0.9997,6.91003 -0.6698,1.28072 -1.944,2.30334 -3.8259,3.06459 -1.5257,0.60115 -3.1756,0.92787 -4.9464,0.98341 l -0.4934,-1.88188 c 1.8002,-0.24504 3.0679,-0.49008 3.803,-0.73511 1.4473,-0.49007 2.4406,-1.24152 2.9862,-2.2478 0.4378,-0.82006 0.6534,-2.38502 0.6534,-4.70143 l 0,-0.77758 c -2.042,0.92787 -4.182,1.38854 -6.42,1.38854 -1.4702,0 -2.7672,-0.46067 -3.8846,-1.38854 -1.2546,-1.00955 -1.8819,-2.29027 -1.8819,-3.84217 l 0,-12.42824 2.9862,-1.02262 0,12.50992 c 0,1.33626 0.4313,2.36542 1.2938,3.08746 0.8625,0.72204 1.9799,1.06836 3.3488,1.04222 1.369,-0.0294 2.8359,-0.55869 4.3943,-1.59437 l 0,-14.59436 2.9862,0 0,16.22793 z"
         style="fill:#ffffff;fill-opacity:1"
         id="path48-9"
         inkscape:connector-curvature="0" />
      <path
         d="m -1760.4972,-458.26139 c -0.3561,0.0294 -0.6828,0.0425 -0.9834,0.0425 -1.6891,0 -3.0058,-0.40186 -3.9467,-1.20884 -0.9377,-0.80699 -1.4082,-1.92109 -1.4082,-3.3423 l 0,-11.76174 -2.0452,0 0,-1.87861 2.0452,0 0,-4.98894 2.9829,-1.06183 0,6.05077 3.3554,0 0,1.87861 -3.3554,0 0,11.68006 c 0,1.12064 0.3006,1.91455 0.9018,2.37849 0.5162,0.38225 1.3362,0.60116 2.4536,0.6567 l 0,1.55516 z"
         style="fill:#ffffff;fill-opacity:1"
         id="path50-0"
         inkscape:connector-curvature="0" />
      <path
         d="m -1742.4168,-458.50643 -2.9862,0 0,-11.5265 c 0,-1.17291 -0.2744,-2.18246 -0.82,-3.02539 -0.6306,-0.954 -1.5062,-1.43101 -2.6301,-1.43101 -1.3689,0 -3.0809,0.72204 -5.1359,2.16613 l 0,13.81677 -2.9862,0 0,-27.55188 2.9862,-0.94094 0,12.54913 c 1.908,-1.38854 3.9924,-2.08444 6.2565,-2.08444 1.5813,0 2.8621,0.53254 3.8422,1.59437 0.9834,1.06182 1.4735,2.38502 1.4735,3.96632 l 0,12.46744 0,0 z"
         style="fill:#ffffff;fill-opacity:1"
         id="path52-6"
         inkscape:connector-curvature="0" />
      <path
         d="m -1726.545,-467.80474 c 0,-1.87534 -0.3561,-3.42397 -1.0651,-4.64915 -0.8429,-1.49309 -2.153,-2.28047 -3.9238,-2.36215 -3.2737,0.18949 -4.9073,2.53531 -4.9073,7.0309 0,2.06158 0.3398,3.78336 1.0259,5.16537 0.8756,1.76099 2.189,2.63006 3.9402,2.60065 3.2867,-0.0261 4.9301,-2.62025 4.9301,-7.78562 z m 3.2704,0.0196 c 0,2.66927 -0.6828,4.89093 -2.0452,6.66499 -1.4996,1.98643 -3.571,2.98291 -6.2141,2.98291 -2.6203,0 -4.6622,-0.99648 -6.1357,-2.98291 -1.3363,-1.77406 -2.0028,-3.99572 -2.0028,-6.66499 0,-2.50917 0.722,-4.61975 2.1661,-6.33827 1.5258,-1.82307 3.5318,-2.73787 6.0116,-2.73787 2.4797,0 4.4988,0.9148 6.054,2.73787 1.4441,1.71852 2.1661,3.8291 2.1661,6.33827 z"
         style="fill:#ffffff;fill-opacity:1"
         id="path54-8"
         inkscape:connector-curvature="0" />
      <path
         d="m -1706.1547,-458.50643 -2.9862,0 0,-12.17993 c 0,-1.33627 -0.4018,-2.37849 -1.2056,-3.12994 -0.8037,-0.74817 -1.8753,-1.11083 -3.2116,-1.08142 -1.4179,0.0261 -2.7672,0.49007 -4.048,1.38854 l 0,15.00275 -2.9861,0 0,-15.37194 c 1.7185,-1.25132 3.2998,-2.06811 4.7439,-2.45036 1.3624,-0.35612 2.5647,-0.53255 3.6004,-0.53255 0.7089,0 1.3754,0.0686 2.0027,0.20583 1.1729,0.27117 2.1269,0.77432 2.862,1.51269 0.8201,0.81679 1.2285,1.79694 1.2285,2.9437 l 0,13.69263 z"
         style="fill:#ffffff;fill-opacity:1"
         id="path56-7"
         inkscape:connector-curvature="0" />
      <path
         id="path1948-9"
         d="m -1835.4369,-485.94797 c -1.5364,0.007 -3.0037,0.13817 -4.2947,0.36662 -3.8032,0.6719 -4.4937,2.07822 -4.4937,4.67174 l 0,3.42525 8.9874,0 0,1.14175 -8.9874,0 -3.3728,0 c -2.612,0 -4.8991,1.56995 -5.6145,4.55652 -0.8252,3.42331 -0.8618,5.55951 0,9.13399 0.6388,2.66071 2.1645,4.55653 4.7765,4.55653 l 3.09,0 0,-4.10611 c 0,-2.96642 2.5666,-5.58305 5.6145,-5.58305 l 8.9769,0 c 2.4988,0 4.4937,-2.05746 4.4937,-4.567 l 0,-8.55788 c 0,-2.43562 -2.0548,-4.26524 -4.4937,-4.67174 -1.5439,-0.257 -3.1458,-0.37376 -4.6822,-0.36662 z m -4.8603,2.75486 c 0.9283,0 1.6864,0.77049 1.6864,1.71787 0,0.94401 -0.7581,1.70738 -1.6864,1.70738 -0.9317,0 -1.6865,-0.76337 -1.6865,-1.70738 0,-0.94738 0.7548,-1.71787 1.6865,-1.71787 z"
         style="fill:#ffffff;fill-opacity:1"
         inkscape:connector-curvature="0" />
      <path
         id="path1950-0"
         d="m -1825.1402,-476.34261 0,3.99088 c 0,3.09408 -2.6232,5.69827 -5.6145,5.69827 l -8.9769,0 c -2.4589,0 -4.4937,2.10451 -4.4937,4.567 l 0,8.55788 c 0,2.43562 2.118,3.86823 4.4937,4.567 2.8449,0.83651 5.573,0.98769 8.9769,0 2.2626,-0.6551 4.4937,-1.97348 4.4937,-4.567 l 0,-3.42525 -8.9769,0 0,-1.14174 8.9769,0 4.4936,0 c 2.612,0 3.5853,-1.82191 4.4937,-4.55653 0.9383,-2.81524 0.8984,-5.52255 0,-9.13399 -0.6455,-2.60023 -1.8784,-4.55652 -4.4937,-4.55652 l -3.3728,0 z m -5.0489,21.67228 c 0.9317,10e-6 1.6865,0.76338 1.6865,1.70739 -10e-5,0.94737 -0.7548,1.71786 -1.6865,1.71786 -0.9283,0 -1.6864,-0.77049 -1.6864,-1.71786 0,-0.94401 0.7581,-1.70739 1.6864,-1.70739 z"
         style="fill:#ffffff;fill-opacity:1"
         inkscape:connector-curvature="0" />
    </g>
  </g>
</svg>
